<?xml version="1.0" encoding="UTF-8"?>
<svg xmlns="http://www.w3.org/2000/svg" viewBox="0 0 800 800">
  <defs>
    <style>
      .cls-1 {
        fill: #18453b;
        stroke-width: 0px;
      }
    </style>
  </defs>
  <g id="Layer_2_copy" data-name="Layer 2 copy">
    <path class="cls-1" d="M204.7,799.5h-54.15c-82.87,0-150.05-67.18-150.05-150.05v-54.15c0-44.58,53.9-66.9,85.42-35.38l154.16,154.16c31.52,31.52,9.2,85.42-35.38,85.42Z"/>
  </g>
  <g id="Layer_2" data-name="Layer 2">
    <path class="cls-1" d="M595.29,799.5h54.07c82.92,0,150.14-67.22,150.14-150.14v-54.07c0-44.58-53.89-66.9-85.41-35.38l-154.17,154.17c-31.52,31.52-9.2,85.41,35.38,85.41Z"/>
  </g>
  <g id="Layer_4" data-name="Layer 4">
    <path class="cls-1" d="M799.63,284.36c-.08,26.44-10.62,51.78-29.32,70.48l-208.14,208.14-32.71,32.71c-18.77,18.77-44.23,29.32-70.78,29.32h-117.21c-26.55,0-52.01-10.55-70.78-29.32L29.71,354.71C11,336,.46,310.65.39,284.19l-.11-41.18C.05,153.71,108.02,108.82,171.17,171.97l158.12,158.12c39.09,39.09,102.47,39.09,141.57,0l158.02-158.02c63.17-63.17,171.16-18.24,170.88,71.09l-.13,41.19Z"/>
  </g>
  <g id="Layer_6" data-name="Layer 6">
    <path class="cls-1" d="M574.11,86.02l-68.38,68.38c-58.67,58.67-153.78,58.67-212.45,0l-68.38-68.38C193.38,54.51,215.7.63,260.26.63h278.47c44.56,0,66.88,53.88,35.37,85.39Z"/>
  </g>
</svg>